<?xml version="1.0" encoding="UTF-8" standalone="no"?>
<!-- Created with Inkscape (http://www.inkscape.org/) -->

<svg
   width="9.1183472mm"
   height="13.229187mm"
   viewBox="0 0 9.1183472 13.229187"
   version="1.1"
   id="svg5"
   xml:space="preserve"
   inkscape:version="1.2.2 (b0a8486541, 2022-12-01)"
   sodipodi:docname="Rotas_nordestinas.svg"
   xmlns:inkscape="http://www.inkscape.org/namespaces/inkscape"
   xmlns:sodipodi="http://sodipodi.sourceforge.net/DTD/sodipodi-0.dtd"
   xmlns="http://www.w3.org/2000/svg"
   xmlns:svg="http://www.w3.org/2000/svg"><sodipodi:namedview
     id="namedview7"
     pagecolor="#505050"
     bordercolor="#ffffff"
     borderopacity="1"
     inkscape:showpageshadow="0"
     inkscape:pageopacity="0"
     inkscape:pagecheckerboard="1"
     inkscape:deskcolor="#505050"
     inkscape:document-units="mm"
     showgrid="false"
     inkscape:zoom="0.72441741"
     inkscape:cx="2353.6155"
     inkscape:cy="3268.8337"
     inkscape:window-width="1366"
     inkscape:window-height="699"
     inkscape:window-x="0"
     inkscape:window-y="32"
     inkscape:window-maximized="1"
     inkscape:current-layer="layer1" /><defs
     id="defs2" /><g
     inkscape:label="Camada 1"
     inkscape:groupmode="layer"
     id="layer1"
     transform="translate(-588.69447,-829.78269)"><path
       id="path398"
       style="fill:#1a1a1a;fill-opacity:1;stroke-width:0.0650306"
       d="m 593.27649,829.78371 c -0.45196,-0.0176 -0.89878,0.19904 -1.10272,0.60979 -0.11547,0.23258 -0.12534,0.45001 -0.14276,3.17608 -0.0103,1.6095 -0.003,2.99346 0.0183,3.07548 0.0203,0.082 0.10186,0.17533 0.18125,0.20729 0.20661,0.0831 0.2604,0.0787 0.42257,-0.0349 l 0.14442,-0.10122 v -2.85461 c 0,-2.04307 0.0216,-2.9021 0.0762,-3.02176 0.13758,-0.30198 0.62053,-0.30198 0.75813,0 0.0452,0.0991 0.0761,0.49573 0.0761,0.9733 0,0.75931 0.008,0.81203 0.14455,0.90738 0.19452,0.13625 0.34951,0.1274 0.50576,-0.0289 0.11758,-0.11762 0.12989,-0.21569 0.12866,-1.02423 -0.003,-1.00512 -0.0794,-1.28449 -0.4429,-1.59033 -0.22337,-0.18795 -0.49635,-0.28284 -0.76752,-0.2934 z m 3.37193,0.0559 c -0.0598,-0.002 -0.12205,-6.9e-4 -0.18684,0.003 -0.4324,0.0275 -0.65078,0.13906 -0.88425,0.45179 -0.17347,0.23233 -0.24025,0.5842 -0.24197,1.27532 -0.001,0.51609 0.0169,0.62002 0.12855,0.7316 0.16845,0.16845 0.40269,0.16572 0.55885,-0.007 0.1014,-0.1119 0.12789,-0.25958 0.14606,-0.81339 0.0199,-0.603 0.0373,-0.68712 0.1608,-0.77363 0.19779,-0.13855 0.35232,-0.12055 0.53536,0.0625 0.14079,0.14079 0.15966,0.21658 0.15966,0.64218 0,0.80751 -0.2369,1.28123 -0.8026,1.60569 -0.29404,0.16864 -0.39926,0.19255 -0.85149,0.19306 -0.43984,6.2e-4 -0.53828,0.0215 -0.66657,0.142 -0.18984,0.17834 -0.19118,0.35906 -0.004,0.56101 0.13999,0.15119 0.17234,0.15652 0.75001,0.12308 1.02282,-0.0592 1.73251,-0.50156 2.14193,-1.33529 0.16967,-0.34546 0.18074,-0.4202 0.18074,-1.21817 0,-0.81865 -0.007,-0.86018 -0.17894,-1.12051 -0.22593,-0.34138 -0.52634,-0.50928 -0.94512,-0.5238 z m -6.69713,2.20888 c -0.40578,-0.0123 -0.81448,0.17648 -1.06602,0.5713 l -0.19076,0.2995 0.0192,1.75583 0.0195,1.75581 0.18251,0.37189 c 0.32442,0.66067 0.88548,1.12304 1.60582,1.32348 0.43378,0.1207 1.11013,0.1151 1.28969,-0.0107 0.11627,-0.0815 0.14383,-0.15455 0.12828,-0.34002 -0.0257,-0.30544 -0.20671,-0.39945 -0.77122,-0.40072 -0.78735,-10e-4 -1.36511,-0.43567 -1.59033,-1.19405 -0.0723,-0.24356 -0.0969,-0.67034 -0.0969,-1.68305 0,-1.35383 2.5e-4,-1.35713 0.15953,-1.5164 0.19475,-0.19475 0.29253,-0.19952 0.51453,-0.0249 l 0.17134,0.13489 v 1.58841 c 0,1.50183 0.007,1.59566 0.13006,1.71862 0.16122,0.1612 0.40113,0.16746 0.53993,0.0141 0.0904,-0.0999 0.10629,-0.35216 0.11471,-1.81895 0.009,-1.55301 -0.001,-1.72127 -0.11115,-1.90938 -0.24009,-0.40979 -0.64296,-0.62334 -1.04875,-0.6357 z m 6.53518,2.33437 c -0.16714,0.004 -0.33375,0.0437 -0.48874,0.12281 -0.55003,0.28073 -0.65729,0.57461 -0.6611,1.81146 -0.003,0.84214 0.009,0.93855 0.12728,1.05675 0.17397,0.17398 0.36214,0.16393 0.55567,-0.0296 0.15354,-0.15354 0.15966,-0.19271 0.15966,-1.02805 0,-0.98041 0.0447,-1.10996 0.38396,-1.10996 0.37939,0 0.42892,0.12068 0.42892,1.04823 0,0.9247 -0.0666,1.20065 -0.37469,1.55146 -0.2923,0.33292 -0.65546,0.49352 -1.18605,0.52431 -0.63801,0.037 -0.73255,0.0645 -0.78887,0.23053 -0.064,0.18846 -0.0384,0.31231 0.0955,0.46194 0.0945,0.10565 0.18845,0.11754 0.75826,0.0963 0.60045,-0.0224 0.68287,-0.0421 1.07313,-0.25618 0.54829,-0.30073 0.92425,-0.755 1.10247,-1.33198 0.17179,-0.55619 0.19128,-1.97262 0.0325,-2.35291 -0.21032,-0.50334 -0.71638,-0.80781 -1.2178,-0.79509 z m -2.37347,0.19876 c -0.1044,10e-4 -0.21093,0.0357 -0.28604,0.10366 -0.10794,0.0977 -0.11898,0.23127 -0.11799,1.44692 2.5e-4,0.73662 0.0234,1.37441 0.0507,1.41733 0.0274,0.0429 0.12193,0.10483 0.21033,0.13769 0.0884,0.0328 0.20469,0.0449 0.25834,0.0267 0.2394,-0.0811 0.26012,-0.20717 0.26012,-1.58335 0,-1.13926 -0.0159,-1.3644 -0.10224,-1.45073 -0.0666,-0.0666 -0.16881,-0.0992 -0.2732,-0.0982 z m -1.68152,4.18026 c -0.0266,9e-5 -0.0535,0.003 -0.0811,0.0105 -0.31538,0.0792 -0.32903,0.15279 -0.33124,1.79113 l -10e-4,1.53127 -0.5736,0.0724 c -1.5887,0.20053 -1.32749,0.65413 0.47592,0.82659 h 1.3e-4 c 0.578,0.0552 3.13403,-0.0258 3.51151,-0.11139 1.03389,-0.23435 0.88747,-0.53965 -0.34306,-0.71533 l -0.56736,-0.081 -0.0164,-1.13677 c -0.0154,-1.06608 -0.025,-1.14384 -0.15356,-1.25056 -0.1722,-0.14299 -0.37018,-0.14524 -0.52393,-0.006 -0.10654,0.0964 -0.11888,0.22547 -0.11888,1.23851 v 1.13092 l -0.43896,-0.0192 -0.43896,-0.0192 -0.007,-1.52339 c -0.007,-1.51262 -0.008,-1.5242 -0.15838,-1.64595 -0.0768,-0.0622 -0.15327,-0.0927 -0.23308,-0.0924 z"
       inkscape:export-filename="../rotas_nordestinas/favicon_verde.png"
       inkscape:export-xdpi="96"
       inkscape:export-ydpi="96" /></g></svg>
