<?xml version="1.0" encoding="UTF-8"?>
<svg version="1.1" viewBox="0 0 2764 840" width="691" height="210" xmlns="http://www.w3.org/2000/svg">
<path transform="translate(712,167)" d="m0 0h267l23 2 16 4 15 6 15 9 12 11 9 10 9 15 6 14 4 16 2 16v18l-3 19-5 16-7 14-10 14-10 10-13 9-16 8-19 6-11 2v2l12 17 12 20 15 24 12 19 12 20 9 14 13 21 8 13v2h-84l-7-10-13-22-14-22-16-26-15-24-13-21-15-25-126-1v150l-1 1h-74l-1-13v-300l1-57zm74 68v84h196l10-2 8-4 8-7 5-11 2-11v-11l-1-11-5-12-7-8-12-6-5-1z" fill="#FEFEFE"/>
<path transform="translate(2564,160)" d="m0 0h40l29 3 23 5 24 8 16 8 12 7 13 10 7 6 9 11 9 14 5 11 4 14 2 13v8l-1 1-72 1-2-1-4-15-6-9-1-3-4-2-10-7-16-7-14-4-21-3h-43l-23 3-18 5-12 6-9 7-6 9-3 9-1 12 3 10 6 8 10 6 11 4 15 3 19 2 14 1 37 1 32 2 29 4 25 6 20 8 14 8 11 9 7 7 7 10 7 14 5 17 1 1v50l-2 1-5 16-8 16-8 11-8 9-14 11-16 9-19 8-25 7-24 4-36 3h-25l-24-2-26-4-23-6-21-8-21-11-12-9-13-12-11-14-7-12-6-18-2-12v-11l1-1h73l1 1 2 10 7 14 4 2 6 5 10 6 16 6 17 4 15 2 15 1h24l23-2 20-4 16-5 11-6 7-6h2l2-4 6-10 2-8v-14l-4-10-6-7-10-6-15-5-15-3-18-2-20-1-39-1-28-2-27-4-20-5-16-6-17-9-10-8-9-9-9-14-6-15-3-15-1-8v-20l2-16 5-17 8-16 8-11 13-13 13-9 17-9 20-7 20-5 29-4z" fill="#fff"/>
<path transform="translate(1334,160)" d="m0 0h30l24 3 24 6 25 10 15 8 16 11 13 11 7 6 7 8 10 12 9 14 8 14 10 25 5 18 3 17 2 23v15l-3 29-5 21-6 18-12 25-10 15-10 13-18 18-13 10-14 9-17 9-21 8-19 5-18 3-22 2h-13l-22-2-25-5-24-8-19-9-17-11-13-10-15-14-7-8-10-13-11-18-9-19-6-18-5-22-2-14-1-14v-14l2-24 4-21 5-17 7-17 8-16 12-18 5-7h2l2-4 7-8 8-7 10-9 18-12 19-10 15-6 20-6 23-4zm8 71-17 2-18 5-16 8-11 7-12 11-9 10-9 14-7 15-6 20-2 12-1 21 2 22 5 20 7 16 9 15 11 13 10 9 15 10 16 7 14 4 13 2h25l13-2 17-5 16-8 13-9 12-11 8-10 8-13 7-15 5-18 3-22v-15l-2-19-5-19-6-15-9-15-7-9-8-9-13-10-16-9-16-6-15-3-10-1z" fill="#fff"/>
<path transform="translate(2095,167)" d="m0 0h108l3 2 20 49 19 46 11 27 16 39 19 46 18 44 19 46 20 49 8 19v4h-80l-9-20-13-32-8-20-1-1h-194l-14 34-15 36-4 4-77-1 3-9 16-39 19-46 13-32 19-46 16-39 14-34 16-39 18-44 14-34 4-8zm52 67-3 3-8 18-15 37-13 32-16 39-13 32v1l20 1h118l-1-5-14-35-16-39-18-44-14-34-3-5z" fill="#FEFEFE"/>
<path transform="translate(1579,167)" d="m0 0h368l2 1v66l-1 1h-147v302l-1 1h-74l-1-73v-63l1-167h-148l-1-66z" fill="#FEFEFE"/>
<path transform="translate(72,143)" d="m0 0h11l17 3 12 5 12 7 10 9 9 10 7 12 3 14 1 15v140l-2 47-2 11-6 8-5 3-4 1h-10l-8-3-7-6-4-8-2-12-1-21-1-168-8-7-11-7-3-1h-7l-6 3-9 8-4 8-2 14v133l2 28 4 20 6 15 6 11 8 11 9 10 12 9 16 8 16 5 13 2 33 2 14 3 8 5 5 6 3 8v14l-4 7-7 6-16 4-13 1h-13l-22-2-21-5-21-8-17-9-14-10-10-9-8-7-7-8-9-12-9-15-10-19-3-9-3-1v-226l8-11 9-13 8-9 12-9 12-6 9-3zm-71 268 1 2z" fill="#fff"/>
<path transform="translate(231,570)" d="m0 0h12l10 5 5 6 3 7 1 9 1 31v149h20l25 1 10 1v-107l1-27 2-9 5-8 8-5 4-1h8l9 3 9 8 3 7 2 20 1 28 1 56v37l13 1 39 6 25 6 16 6 6 4 2 3v6l-4 5-14 7-21 6-19 3-35 3-37 2-7 1h-135l-11-2-36-6-24-6-11-5-6-4-4-4-1-4 4-6 9-5 13-5 17-4 42-6 18-2v-93l1-69 1-19 3-16 4-7 6-5z" fill="#FEFEFE"/>
<path transform="translate(270)" d="m0 0h37v2l9 2 16 8 11 8 9 9 8 13 4 11 3 17 1 12 1 26v37l-1 23-2 9-6 9-7 5-8 2-8-1-10-5-6-7-2-8-1-13-1-54-1-20-3-17-5-8-10-5-5-1h-7l-10 3-7 6-4 13-1 17-1 31-1 81-1 235-4 4-11 7-4 1h-10l-10-4-6-5-3-5-1-8-1-29v-179l1-95 1-40 2-30 3-13 6-12 7-9 7-7 14-9z" fill="#fff"/>
<path transform="translate(485,292)" d="m0 0h24l16 4 16 8 13 10 10 11 8 13 4 11 3 19 1 15v48l-2 26-4 26-6 20-8 16-7 12-11 14-13 13-13 10-15 9-16 8-11 4-9 2-22 2-20 1h-21l-12-2-9-8-5-10v-12l4-11 6-4 14-3 43-4 18-4 16-7 12-7 13-12 10-13 7-14 4-15 2-16 1-15v-52l-2-22-4-11-4-4-6-2h-18l-7 3-4 8-2 8-1 12-1 31-1 49-2 12-3 6-8 9-12 6-5 1-11-4-8-8-4-10-1-9v-78l2-23 4-20 6-15 9-11 10-8 17-9 9-3z" fill="#fff"/>
<path transform="translate(490,3)" d="m0 0h22l15 3 13 5 11 8 5 4 9 11 7 11 4 11 1 8 1 19v48l-2 28-4 15-8 17-10 16-11 14-15 15-16 11-19 10-21 7-18 4-25 3-26 1-13-2-8-6-7-10-3-8 2-10 6-9 10-7 7-2 9-1 37-1 16-3 10-4 16-9 13-10 8-8 9-14 4-8 5-16 3-16 1-13v-31l-3-12-6-9-8-6-9-3-11 2-8 6-3 6-2 12-1 10-2 42-2 14-4 11-4 5-9 5-4 1h-8l-10-4-7-7-4-9-1-7v-55l2-19 4-18 8-16 9-11 8-7 10-6 13-4z" fill="#fff"/>
<path transform="translate(1139,629)" d="m0 0h121l10 2 14 7 9 9 6 12 2 8v20l-5 14-8 10-10 7-11 4-5 1 5 9 10 15 12 20 11 17 1 4h-36l-6-9-11-17-14-23-8-13v-2h-53l-1 2-1 61-1 1h-31l-1-5v-151zm34 29-2 1v35h84l7-2 6-7 1-13-2-7-5-5-8-2z" fill="#fff"/>
<path transform="translate(1544,629)" d="m0 0h155l1 1v28l-7 1h-117v35h92v29h-92v36h124v28l-1 1h-155l-1-3v-154z" fill="#FEFEFE"/>
<path transform="translate(736,629)" d="m0 0h28l7 6 7 8 10 11 7 8 11 12 27 30 7 8 11 12 10 11 2 1-1-2v-104l1-1h32v158l-1 1h-29l-12-13-7-8-11-12-18-20-12-14-7-7-7-8-11-12-9-10-2-3-1 106-1 1h-31l-1-1v-156z" fill="#fff"/>
<path transform="translate(2184,629)" d="m0 0h28l8 7 7 8 11 12 7 8 12 13 7 8 11 12 7 8 11 12 7 8 10 11v-105l1-2h32v158l-1 1h-28l-9-9-7-8-12-13-9-10-11-12-9-11-8-8-7-8-12-13-12-14-1-1-1 106-1 1h-31l-1-3v-154z" fill="#FEFEFE"/>
<path transform="translate(1342,629)" d="m0 0h89l17 3 13 5 13 8 10 9 7 8 7 12 5 15 2 14v9l-2 16-4 12-8 15-11 12-10 8-16 8-15 4-9 1h-88zm36 29-3 1-1 98 1 2h50l12-2 14-7 9-8 6-10 3-9 1-5v-18l-3-12-6-11-5-6-10-7-10-4-4-1-15-1z" fill="#fff"/>
<path transform="translate(2636,626)" d="m0 0h30l17 3 13 5 12 7 10 10 6 12 3 13-1 1-31 1-3-3-3-8-5-4-12-5-13-2h-15l-14 2-10 4-5 5-2 4v9l3 4v2l9 3 15 2 36 2 18 3 13 5 9 6 8 9 4 10 1 6v15l-2 9-5 10-9 10-14 8-17 5-12 2h-34l-16-3-16-6-11-7-5-5-6-7-4-8-2-6v-9l30-1 3 3 4 8 5 4 9 4 17 3h19l16-3 10-5 5-6 1-3v-9l-3-5-8-4-7-2-10-1-26-1-19-2-16-4-12-6-8-8-5-10-2-8v-16l4-13 6-9 7-7 16-8 16-4z" fill="#FEFEFE"/>
<path transform="translate(1795,626)" d="m0 0h29l20 4 13 5 13 9 7 8 6 12 2 12-7 2h-25l-6-11-6-5-10-4-12-2h-17l-14 2-9 4-5 2-2 6-1 2v7l4 6 5 3 7 2 31 2 25 2 19 5 10 6 7 6 5 8 3 10v21l-4 11-6 9-7 7-11 6-15 5-16 3h-34l-19-4-16-7-10-7-8-9-5-10-3-13 1-1 30-1 3 2 4 9 9 6 9 3 13 2h19l13-2 10-4 7-5 3-8-1-8-4-5-10-4-13-2-38-2-18-3-13-5-9-7-6-8-4-10-1-6v-13l3-11 4-8 8-9 11-7 14-5z" fill="#FEFEFE"/>
<path transform="translate(1e3 626)" d="m0 0h23l15 3 12 5 12 7 10 9 9 10 8 15 4 13 2 12v17l-3 15-4 12-6 11-8 10-5 5-8 7-15 8-16 5-17 2-15-1-16-4-16-8-11-8-7-7-7-10-7-14-4-13-1-6v-25l4-16 5-12 8-12 9-10 12-9 15-7 11-3zm4 31-12 3-11 7-7 7-6 10-4 13-1 5v13l4 16 7 12 8 8 9 5 13 4h16l13-4 11-7 7-8 5-9 4-13v-20l-3-12-6-11-7-8-11-7-13-4z" fill="#fff"/>
<path transform="translate(2441,629)" d="m0 0h48l5 10 15 37 10 24 16 39 15 37 4 9v3h-34l-3-5-11-26h-82l-4 9-9 21-1 1h-34l1-5 11-26 15-37 12-29 14-34 11-27zm23 29-5 10-15 37-5 13-3 6v3h58l-3-9-24-58-1-2z" fill="#fff"/>
<path transform="translate(340,304)" d="m0 0h9l9 3 5 4 3 5 2 15 1 36v71l-1 33-2 17-4 9-5 5-5 2h-10l-10-3-9-5-2-4-2-21-1-46v-67l1-29 2-11 4-7 10-6z" fill="#fff"/>
<path transform="translate(1909,629)" d="m0 0h159l1 2-1 27-7 1h-56v128l-1 1h-32v-130l-3 1h-57l-3-1-1-3v-18z" fill="#fff"/>
<path transform="translate(2104,629)" d="m0 0h32l1 1v157l-1 1h-32z" fill="#fff"/>
<path transform="translate(191,839)" d="m0 0h6v1h-6z" fill="#fff"/>
<path transform="translate(2763,397)" d="m0 0" fill="#fff"/>
<path transform="translate(267)" d="m0 0" fill="#fff"/>
</svg>
