<?xml version="1.0" encoding="UTF-8"?>
<svg version="1.1" viewBox="0 0 2048 622" width="691" height="210" xmlns="http://www.w3.org/2000/svg">
<path transform="translate(528,124)" d="m0 0h198l20 2 13 4 14 7 11 9 8 9 8 14 5 15 2 13v19l-3 16-5 12-7 12-9 10-13 9-13 6-21 5 8 10 16 26 30 48 16 26v2h-61l-7-10-14-23-30-48-16-26-3-4-93-1v112h-55v-273zm55 49-1 1v63h143l11-2 9-6 5-7 2-8v-19l-4-10-5-6-8-4-3-1z" fill="#010101"/>
<path transform="translate(1896,119)" d="m0 0h37l23 3 20 5 15 6 13 7 12 9 10 10 9 14 5 13 2 10v10l-53 1-2-3-3-10-7-9-11-7-18-6-20-3h-26l-22 3-15 5-10 6-5 6-4 10v11l3 7 5 5 10 5 11 3 15 2 16 1 47 2 28 4 15 4 15 6 11 7 10 9 7 10 5 11 4 16v25l-4 15-5 12-7 11-4 5-8 7-14 9-13 6-16 5-19 4-17 2-17 1h-16l-23-2-22-4-16-5-16-7-12-7-11-9-7-7-9-14-5-12-2-9-1-11 1-1h54l3 10 6 9 10 7 14 6 12 3 15 2h36l19-3 16-5 12-7 7-9 3-9v-10l-3-8-4-5-14-7-12-3-15-2-17-1-35-1-29-3-21-5-16-6-11-7-10-9-7-10-5-12-3-14v-23l4-18 8-16 11-12 8-7 14-8 15-6 21-5z" fill="#010101"/>
<path transform="translate(985,119)" d="m0 0h28l20 3 18 5 18 8 15 9 11 9 9 8 9 11 9 13 8 16 6 16 4 17 2 18v19l-3 23-5 18-7 16-9 16-11 14-12 12-12 9-15 9-19 8-19 5-14 2-22 1-20-2-19-4-16-6-16-8-13-9-10-9-13-13-11-16-8-16-5-13-5-22-2-23 1-20 5-25 7-19 8-15 10-14 9-10 9-9 17-12 16-8 12-5 20-5zm3 52-14 3-13 5-10 6-11 9-10 12-7 12-5 13-3 13-1 9v17l2 14 5 16 9 17 11 12 9 8 14 8 16 5 14 2h11l14-2 15-5 11-6 13-10 9-10 9-16 5-14 3-16v-24l-3-16-6-16-6-10-7-9-9-9-14-9-14-6-15-3z" fill="#010101"/>
<path transform="translate(1552,124)" d="m0 0h81l5 10 15 37 17 41 18 44 16 39 19 46 18 44 5 13h-59l-7-14-16-40h-146l-1 6-16 39-4 8-1 1h-57l1-5 15-36 32-78 19-46 36-88 8-19zm38 49-3 4-20 49-16 39-11 27v2h103l-1-5-17-42-19-46-10-24-3-4z" fill="#010101"/>
<path transform="translate(1170,124)" d="m0 0h273l1 1v48l-2 1h-107l-1 224h-55v-224h-109l-1-3v-46z" fill="#010101"/>
<path transform="translate(46,107)" d="m0 0h23l12 4 12 7 12 12 5 8 3 11 1 19v83l-1 39-1 13-3 8-6 5h-13l-6-4-4-4-2-7-1-12-1-133-9-8-8-4-7 1-8 6-5 10-1 13v87l1 21 3 18 6 16 9 14 11 11 14 8 10 4 17 3 20 1 11 2 8 4 4 7 1 3v11l-4 6-4 3-13 3h-27l-17-3-18-6-19-10-14-11-10-10-11-15-14-27-1-21-1-47v-100l13-19 9-9 10-6 10-4z" fill="#21754B"/>
<path transform="translate(173,422)" d="m0 0 9 1 6 4 4 5 2 13 1 82v49h22l19 1v-86l1-16 3-7 5-5 5-2h7l9 4 4 5 2 5 1 11 1 32 1 60 40 6 20 5 12 6 3 4-2 5-8 5-15 5-15 3-39 3-42 2h-76l-39-6-19-5-12-6-3-4 1-5 8-5 11-4 21-4 31-4h4v-85l1-44 2-16 3-6 5-4z" fill="#21754B"/>
<path transform="translate(203)" d="m0 0h20l16 5 10 6 10 9 7 10 4 12 2 14 1 19v37l-1 15-3 7-4 5-6 3h-9l-8-4-4-5-2-13-1-47-2-20-4-8-6-4-4-1h-9l-7 3-3 1-2 5-2 8-1 19-1 50-1 200-8 6-9 3-9-2-6-4-3-5-1-12v-193l1-51 1-20 3-16 6-11 5-6 8-6 12-6z" fill="#21754B"/>
<path transform="translate(364,216)" d="m0 0 16 1 13 4 12 7 8 7 8 11 5 11 3 19v52l-3 24-5 19-8 16-7 11-12 13-14 11-18 10-11 4-12 2-13 1h-34l-6-3-6-8-1-3v-10l3-7 8-4 39-4 16-4 14-7 10-8 8-9 7-12 4-15 2-22v-38l-1-14-3-10-5-4-3-1h-14l-5 3-3 5-2 13-2 66-3 8-6 7-8 4-5 1-8-3-6-7-2-4-1-8v-59l2-21 4-15 5-9 9-9 14-8 9-3z" fill="#21754B"/>
<path transform="translate(359,3)" d="m0 0h24l12 3 12 7 10 10 8 14 2 8 1 24v22l-1 22-2 11-5 12-7 13-8 11-11 12-12 9-12 7-19 7-20 4-24 2h-12l-7-2-6-5-5-8-1-7 3-7 5-5 6-4 11-2 29-1 10-2 12-5 12-8 10-9 7-10 4-8 4-13 2-13v-33l-3-8-7-8-7-3-9 1-7 4-3 6-2 18-2 35-3 11-5 6-7 3h-8l-8-4-4-5-2-4-1-6v-42l2-17 4-14 7-11 10-10 10-5z" fill="#21754B"/>
<path transform="translate(844,466)" d="m0 0h89l10 2 10 6 6 7 4 9 1 5v11l-4 13-9 10-8 4-9 1 11 18 15 24 3 5v2h-26l-16-25-12-20-2-2h-39v46l-1 1h-23zm24 21-1 4v23h66l6-5 1-2v-13l-5-6-3-1z" fill="#010101"/>
<path transform="translate(1144,466)" d="m0 0h115v21h-91v26l67 1 1 1v19l-1 1-67 1-1 26h92v21h-115z" fill="#010101"/>
<path transform="translate(1619,466)" d="m0 0h20l5 4 7 8 18 20 11 12 7 8 9 10 11 12 5 5v-78l1-1h22l1 1v116h-22l-14-15-7-8-13-14-9-11-9-9-7-8-9-10-3-4-1 28v51h-24v-116z" fill="#010101"/>
<path transform="translate(546,466)" d="m0 0h20l12 12 7 8 12 13 7 8 11 12 7 8 11 12 5 6h1v-78l1-1h22l1 1v115l-1 1h-21l-15-16-7-8-12-13-12-14-16-17-9-11h-1v78l-1 1h-23v-116z" fill="#010101"/>
<path transform="translate(995,466)" d="m0 0h65l12 2 13 5 11 8 7 7 7 12 4 13 1 12-2 15-4 11-7 11-9 9-10 6-11 4-9 2h-68zm23 21v75l2 1 40-1 10-3 10-7 6-9 3-8 1-6v-8l-3-13-6-9-8-7-9-4-6-1z" fill="#010101"/>
<path transform="translate(1951,464)" d="m0 0h26l14 3 14 7 8 7 5 9 2 11h-24l-4-8-6-4-11-3h-21l-13 4-5 6v8l5 5 6 2 41 3 15 4 10 6 6 8 2 5 1 14-2 10-7 11-10 7-16 5-16 2h-12l-14-2-13-4-12-7-6-7-4-8-1-3v-7h23l4 8 12 6 14 2h9l16-3 6-4 3-3 1-3v-7l-4-5-9-3-8-1-24-1-15-2-13-5-7-6-5-10-1-6v-10l3-10 6-8 9-7 11-4z" fill="#010101"/>
<path transform="translate(1328,464)" d="m0 0h26l16 4 10 5 10 9 5 10 1 9h-23l-6-9-7-4-9-2h-21l-10 3-6 4-2 4v6l2 4 9 4 41 3 16 4 9 6 6 7 3 9v15l-4 10-6 8-9 6-11 4-20 3h-12l-15-2-15-5-10-7-7-8-3-7-1-9h23l5 8 8 5 8 2 9 1h9l13-2 10-5 3-4 1-7-3-6-11-4-8-1-23-1-19-3-12-6-7-8-3-7v-18l4-10 6-7 10-6 9-3z" fill="#010101"/>
<path transform="translate(742,464)" d="m0 0h22l12 3 12 6 11 9 9 13 5 13 1 5v24l-4 13-6 11-10 11-11 7-13 5-11 2h-12l-14-3-12-5-9-7-8-8-7-12-4-13-1-6v-15l4-16 7-13 10-11 13-8zm5 22-10 3-8 6-6 7-4 8-2 8v13l4 13 6 9 10 7 9 3h15l11-4 10-9 5-9 3-12v-8l-3-13-6-10-8-7-9-4-5-1z" fill="#010101"/>
<path transform="translate(1809,466)" d="m0 0h35l4 8 18 44 19 46 7 17v2h-25l-6-13-3-7v-3l-63 1-9 22h-25l3-9 18-44 17-41 9-22zm16 21-9 21-12 29v2h44l-1-5-18-44-2-3z" fill="#010101"/>
<path transform="translate(249,226)" d="m0 0h13l6 4 3 5 1 5 1 24v69l-1 21-2 10-4 6-5 3h-7l-10-3-5-4-1-2-1-9-1-30v-65l1-20 3-8 6-5z" fill="#21754B"/>
<path transform="translate(1415,466)" d="m0 0h117v21l-46 1-1 95h-23l-1-95-46-1-1-2v-12z" fill="#010101"/>
<path transform="translate(1560,466)" d="m0 0h22l1 1v116h-24v-116z" fill="#010101"/>
</svg>
