<!DOCTYPE svg PUBLIC "-//W3C//DTD SVG 1.1//EN" "http://www.w3.org/Graphics/SVG/1.1/DTD/svg11.dtd">
<!-- Uploaded to: SVG Repo, www.svgrepo.com, Transformed by: SVG Repo Mixer Tools -->
<svg fill="#000000" height="800px" width="800px" version="1.1" id="Capa_1" xmlns="http://www.w3.org/2000/svg" xmlns:xlink="http://www.w3.org/1999/xlink" viewBox="0 0 330 330" xml:space="preserve">
<g id="SVGRepo_bgCarrier" stroke-width="0"/>
<g id="SVGRepo_tracerCarrier" stroke-linecap="round" stroke-linejoin="round"/>
<g id="SVGRepo_iconCarrier"> <g> <path d="M295.603,124.412c-2.811-2.811-6.624-4.39-10.6-4.39L180,120.003V90h105c3.979,0,7.794-1.581,10.606-4.394l30-30 c2.813-2.813,4.395-6.63,4.394-10.609s-1.583-7.795-4.397-10.608l-30-29.977c-2.811-2.81-6.624-4.39-10.6-4.39L165.003,0 c-0.001,0-0.002,0-0.003,0c-3.977,0-7.793,1.58-10.605,4.393C151.581,7.205,150,11.022,150,15v45H45 c-3.979,0-7.794,1.58-10.606,4.394l-30,30C1.58,97.207-0.001,101.023,0,105.002c0.001,3.979,1.582,7.796,4.398,10.608l30,29.979 c2.812,2.81,6.624,4.389,10.6,4.39L150,149.997V195v120c0,8.283,6.716,15,15,15s15-6.717,15-15V210h105 c3.979,0,7.794-1.581,10.606-4.395l30-29.999c2.813-2.813,4.395-6.63,4.394-10.609c-0.001-3.98-1.583-7.795-4.397-10.607 L295.603,124.412z M293.783,45.004L278.787,60H180V30.003l98.789,0.019L293.783,45.004z M36.217,104.996L51.213,90H150v29.997 l-98.789-0.018L36.217,104.996z M278.787,180H180v-29.997l98.789,0.019l14.994,14.982L278.787,180z"/> </g> </g>
</svg>