<svg width="500" height="500" viewBox="0 0 500 500" fill="none" xmlns="http://www.w3.org/2000/svg">
<path d="M250 484.3C382.649 484.3 490.182 422.216 490.182 345.631C490.182 269.046 382.649 206.962 250 206.962C117.352 206.962 9.81836 269.046 9.81836 345.631C9.81836 422.216 117.352 484.3 250 484.3Z" fill="#F5F5F5"/>
<path d="M238.667 384.802L229.553 379.544C228.816 379.118 228.815 378.428 229.553 378.003L295.075 340.172C295.812 339.746 296.001 338.843 295.558 338.116C293.478 334.7 292.673 331.022 293.222 327.29C294.092 321.358 298.444 315.854 305.475 311.795C313.066 307.413 323.106 305 333.744 305C344.383 305 354.423 307.414 362.013 311.795C370.029 316.423 374.445 322.725 374.445 329.539C374.446 336.355 370.031 342.656 362.013 347.286C354.429 351.664 344.397 354.076 333.764 354.076C329.382 354.076 325.097 353.668 320.987 352.863C320.151 352.699 318.879 352.893 318.142 353.318L307.94 359.208C307.203 359.634 305.932 359.826 305.101 359.639L298.216 358.082C297.386 357.894 296.115 358.087 295.377 358.513L293.3 359.712C292.563 360.138 291.934 361.172 291.896 362.023L291.667 367.104C291.629 367.955 291 368.989 290.262 369.415L287.651 370.922C286.914 371.348 285.628 371.753 284.78 371.828L278.696 372.363C277.848 372.437 276.558 372.834 275.814 373.249L273.305 374.649C272.562 375.064 272.048 376.085 272.158 376.929L272.315 378.135C272.425 378.979 271.916 380.009 271.179 380.434L263.612 384.802C262.875 385.228 261.587 385.573 260.735 385.573H241.544C240.692 385.573 239.404 385.228 238.667 384.802ZM343.794 319.677C341.364 319.677 339.021 320.224 337.369 321.179C336.155 321.88 335.43 322.734 335.43 323.465C335.43 324.195 336.155 325.049 337.369 325.75C339.021 326.705 341.363 327.252 343.794 327.252C346.225 327.252 348.567 326.705 350.219 325.75C351.433 325.049 352.158 324.195 352.158 323.465C352.158 322.734 351.433 321.88 350.219 321.179C348.568 320.224 346.225 319.677 343.794 319.677Z" fill="#E0E0E0"/>
<path d="M90.3518 403.725L24.4418 365.672C22.1418 364.344 22.1418 362.19 24.4418 360.862L152.87 286.714C155.17 285.386 158.9 285.386 161.201 286.714L227.11 324.767C229.41 326.095 229.41 328.249 227.11 329.577L98.6828 403.725C96.3818 405.053 92.6518 405.053 90.3518 403.725Z" fill="#E0E0E0"/>
<path d="M78.7704 350.91V328.627C78.7704 328.627 77.6303 316.051 68.8213 306.515C60.0123 296.979 52.1213 300.222 49.5523 304.748C46.9833 309.274 52.8283 317.866 56.5613 322.7C61.0543 328.52 78.7704 355.545 78.7704 367.648V350.91Z" fill="#37474F"/>
<path d="M78.7702 347.389C78.5072 347.389 78.2762 347.199 78.2312 346.932C74.2132 322.631 55.7192 305.954 55.5332 305.789C55.3072 305.588 55.2872 305.242 55.4882 305.017C55.6882 304.791 56.0342 304.772 56.2592 304.971C56.4482 305.14 75.2272 322.061 79.3102 346.753C79.3602 347.051 79.1582 347.333 78.8602 347.382C78.8302 347.387 78.8002 347.389 78.7702 347.389Z" fill="white"/>
<path d="M78.8672 353.834C78.8672 353.834 79.5962 351.619 76.3432 351.059C73.0902 350.498 71.8402 347.791 71.5352 343.251C71.2302 338.712 69.8592 335.454 65.7782 334.784C61.6972 334.114 58.4122 336.168 55.7602 334.125C53.1082 332.082 46.2562 327.143 40.5482 329.392C34.8402 331.64 36.7112 336.514 39.6802 339.676C42.6492 342.838 43.5102 343.902 41.2382 349.042C38.9662 354.182 40.6202 358.984 45.8722 360.185C51.1232 361.387 54.0592 360.771 54.1412 366.535C54.2232 372.298 55.0182 374.863 57.8942 377.119C60.7702 379.375 69.8252 378.36 73.5882 379.236C77.3512 380.112 78.8682 383.468 78.8682 383.468L78.8672 353.834Z" fill="#455A64"/>
<path d="M78.8663 377.568C78.6773 377.568 78.5023 377.449 78.4383 377.26C68.8793 348.877 47.2453 337.413 47.0273 337.301C46.8063 337.186 46.7193 336.914 46.8333 336.693C46.9463 336.472 47.2193 336.384 47.4413 336.499C47.6623 336.613 69.6123 348.228 79.2923 376.973C79.3723 377.209 79.2453 377.465 79.0093 377.544C78.9623 377.56 78.9143 377.568 78.8663 377.568Z" fill="white"/>
<path d="M65.1548 352.827C65.1208 352.827 65.0878 352.823 65.0538 352.816C58.8128 351.39 48.8238 352.161 48.7238 352.167C48.4728 352.186 48.2578 352.002 48.2378 351.754C48.2178 351.505 48.4038 351.288 48.6518 351.268C49.0668 351.234 58.8788 350.479 65.2548 351.936C65.4978 351.992 65.6498 352.233 65.5938 352.476C65.5468 352.685 65.3608 352.827 65.1548 352.827Z" fill="white"/>
<path d="M70.2439 366.468C67.3919 366.468 64.3649 366.282 64.1749 366.27C63.9259 366.254 63.7369 366.04 63.7529 365.791C63.7679 365.542 63.9809 365.341 64.2319 365.369C64.3019 365.373 71.2749 365.802 73.9949 365.373C74.2429 365.337 74.4719 365.503 74.5109 365.748C74.5499 365.994 74.3819 366.226 74.1359 366.265C73.1689 366.417 71.7299 366.468 70.2439 366.468Z" fill="white"/>
<path d="M62.2252 349.493C62.2172 349.493 62.2082 349.493 62.1992 349.492C61.9502 349.479 61.7602 349.265 61.7742 349.017C62.0512 344.011 63.7122 339.694 63.7832 339.512C63.8732 339.28 64.1352 339.163 64.3672 339.255C64.5992 339.345 64.7142 339.607 64.6242 339.839C64.6072 339.882 62.9452 344.208 62.6752 349.065C62.6622 349.307 62.4632 349.493 62.2252 349.493Z" fill="white"/>
<path d="M441.538 371.371L430.042 364.748C430.042 364.748 422.91 343.753 424.716 324.419C426.96 300.391 438.306 291.946 444.974 294.626C451.643 297.307 450.262 306.88 443.198 319.718C437.597 329.899 437.583 353.352 441.538 371.371Z" fill="#37474F"/>
<path d="M436.012 368.736C435.793 368.736 435.588 368.596 435.516 368.377C428.114 345.713 427.805 313.883 441.812 299.534C442.013 299.327 442.342 299.323 442.549 299.525C442.755 299.726 442.759 300.056 442.558 300.262C429.336 313.808 429.098 345.367 436.508 368.053C436.597 368.327 436.448 368.622 436.174 368.711C436.12 368.728 436.065 368.736 436.012 368.736Z" fill="white"/>
<path d="M462.187 383.291C463.377 383.974 465.83 382.48 466.77 381.85C468.379 380.771 469.682 379.242 470.548 377.514C471.556 375.502 471.809 373.346 471.494 371.121C471.33 369.967 471.008 368.842 470.685 367.721C470.369 366.621 470.053 365.521 469.736 364.421C469.424 363.336 469.109 362.213 469.252 361.093C469.541 358.836 471.544 357.255 473.365 355.892C475.379 354.384 477.476 352.393 477.464 349.676C477.455 347.58 476.369 345.633 475.07 343.987C473.771 342.342 472.229 340.888 471.055 339.151C470.21 337.901 469.55 336.432 469.688 334.929C469.773 333.995 470.16 333.116 470.607 332.292C471.566 330.523 472.832 328.903 473.494 327.002C474.156 325.102 474.061 322.738 472.578 321.378C471.361 320.262 469.551 320.106 467.903 320.215C466.378 320.316 464.889 321.004 463.555 321.746C459.242 324.145 456.78 329.253 452.203 331.099C450.437 331.811 448.503 331.967 446.663 332.453C444.823 332.939 442.946 333.879 442.094 335.581C440.414 338.937 443.532 343.073 442.351 346.635C441.306 349.787 438.242 350.994 436.522 353.835C435.77 355.078 435.596 356.514 435.717 357.962C435.922 360.413 436.281 362.211 437.457 364.936C438.429 367.188 441.285 371.218 441.285 371.218C441.358 371.288 462.005 383.186 462.187 383.291Z" fill="#455A64"/>
<path d="M449.856 376.632C449.625 376.632 449.425 376.46 449.396 376.225C447.174 358.617 455.579 334.865 468.132 323.28C468.321 323.107 468.615 323.116 468.789 323.307C468.963 323.496 468.952 323.79 468.762 323.964C456.404 335.371 448.13 358.763 450.318 376.11C450.35 376.364 450.17 376.597 449.915 376.629C449.895 376.63 449.876 376.632 449.856 376.632Z" fill="white"/>
<path d="M452.005 354.099C451.863 354.099 451.723 354.035 451.633 353.912C451.478 353.707 451.52 353.415 451.726 353.261C458.653 348.064 469.239 348.969 469.686 349.01C469.942 349.034 470.13 349.26 470.107 349.516C470.083 349.773 469.85 349.955 469.601 349.937C469.495 349.926 458.922 349.025 452.284 354.005C452.199 354.069 452.101 354.099 452.005 354.099Z" fill="white"/>
<path d="M453.048 349.781C452.799 349.781 452.593 349.584 452.583 349.334C452.269 341.268 446.175 336.394 446.114 336.346C445.912 336.187 445.877 335.895 446.035 335.693C446.194 335.491 446.485 335.456 446.688 335.613C446.953 335.82 453.182 340.789 453.513 349.297C453.523 349.553 453.323 349.77 453.066 349.78C453.059 349.78 453.053 349.781 453.048 349.781Z" fill="white"/>
<path d="M224.198 27.286L96.5237 100.988C93.9677 102.473 91.8867 106.076 91.8867 109.034V396.96C91.8867 399.918 93.9677 401.123 96.5237 399.638L224.198 325.936C226.754 324.451 228.836 320.848 228.836 317.89V29.964C228.835 27.006 226.754 25.801 224.198 27.286ZM222.152 291.359C222.152 293.891 220.375 295.504 218.172 296.77L102.087 363.79C99.8957 365.056 98.1067 364.033 98.1067 361.489V135.946C98.1067 133.402 99.8957 130.322 102.087 129.044L218.172 62.037C220.375 60.759 222.152 61.793 222.152 64.325V291.359Z" fill="#EA9865"/>
<path opacity="0.75" d="M224.198 27.286L96.5237 100.988C93.9677 102.473 91.8867 106.076 91.8867 109.034V396.96C91.8867 399.918 93.9677 401.123 96.5237 399.638L224.198 325.936C226.754 324.451 228.836 320.848 228.836 317.89V29.964C228.835 27.006 226.754 25.801 224.198 27.286ZM222.152 291.359C222.152 293.891 220.375 295.504 218.172 296.77L102.087 363.79C99.8957 365.056 98.1067 364.033 98.1067 361.489V135.946C98.1067 133.402 99.8957 130.322 102.087 129.044L218.172 62.037C220.375 60.759 222.152 61.793 222.152 64.325V291.359Z" fill="white"/>
<path d="M95.9466 399.929C93.3716 401.113 89.6246 401.01 87.2336 399.642L81.9226 396.573C79.3476 395.09 77.2676 391.504 77.2676 388.527V100.62C77.2676 99.4929 77.5666 98.2979 78.0726 97.1489C78.2336 96.7699 78.4176 96.4019 78.6246 96.0339C78.6366 96.0339 78.6366 96.0229 78.6366 96.0229L93.2466 104.46H93.2586C92.9486 105.012 92.6726 105.587 92.4536 106.161C92.0976 107.126 91.8906 108.115 91.8906 109.035V396.965C91.8886 399.688 93.6596 400.929 95.9466 399.929Z" fill="#EA9865"/>
<path opacity="0.6" d="M95.9466 399.929C93.3716 401.113 89.6246 401.01 87.2336 399.642L81.9226 396.573C79.3476 395.09 77.2676 391.504 77.2676 388.527V100.62C77.2676 99.4929 77.5666 98.2979 78.0726 97.1489C78.2336 96.7699 78.4176 96.4019 78.6246 96.0339C78.6366 96.0339 78.6366 96.0229 78.6366 96.0229L93.2466 104.46H93.2586C92.9486 105.012 92.6726 105.587 92.4536 106.161C92.0976 107.126 91.8906 108.115 91.8906 109.035V396.965C91.8886 399.688 93.6596 400.929 95.9466 399.929Z" fill="white"/>
<path d="M158.19 355.88C157.412 355.88 156.689 355.697 156.049 355.326C154.515 354.441 153.67 352.612 153.67 350.179C153.67 345.364 157.063 339.488 161.232 337.082C163.34 335.863 165.346 335.681 166.88 336.568C168.414 337.453 169.259 339.281 169.259 341.715C169.259 346.529 165.866 352.405 161.697 354.813C160.47 355.523 159.276 355.88 158.19 355.88ZM164.736 336.945C163.814 336.945 162.78 337.262 161.697 337.886C157.783 340.146 154.6 345.66 154.6 350.179C154.6 352.267 155.28 353.809 156.515 354.522C157.747 355.234 159.424 355.051 161.233 354.009C165.147 351.749 168.33 346.233 168.33 341.715C168.33 339.627 167.65 338.085 166.415 337.372C165.92 337.087 165.354 336.945 164.736 336.945Z" fill="#455A64"/>
<path d="M160.361 70.3458C162.08 69.3538 163.474 70.1578 163.474 72.1428C163.474 74.1278 162.08 76.5418 160.361 77.5338C158.642 78.5258 157.248 77.7218 157.248 75.7368C157.248 73.7518 158.642 71.3378 160.361 70.3458Z" fill="#455A64"/>
<path d="M148.345 89.2776L172.376 75.4026C173.81 74.5746 174.972 75.1626 174.972 76.7156C174.972 78.2686 173.81 80.1986 172.376 81.0266L148.344 94.9016C146.91 95.7296 145.748 95.1416 145.748 93.5886C145.749 92.0356 146.912 90.1056 148.345 89.2776Z" fill="#455A64"/>
<path d="M222.152 291.359C222.152 293.891 220.375 295.504 218.172 296.77L102.087 363.79C99.8964 365.056 98.1074 364.033 98.1074 361.489V135.946C98.1074 133.402 99.8964 130.322 102.087 129.044L218.172 62.0367C220.375 60.7587 222.152 61.7927 222.152 64.3247V291.359Z" fill="#455A64"/>
<path d="M228.79 29.2269C228.457 26.8129 226.525 25.9389 224.204 27.2839L96.5208 100.988C95.2448 101.724 94.0838 103 93.2448 104.459L78.6348 96.0219C79.4848 94.5619 80.6348 93.3089 81.9218 92.5729L209.582 18.8579C212.134 17.3749 216.295 17.3749 218.87 18.8579L224.203 21.9149C226.548 23.2839 228.491 26.4219 228.79 29.2269Z" fill="#EA9865"/>
<path opacity="0.9" d="M228.79 29.2269C228.457 26.8129 226.525 25.9389 224.204 27.2839L96.5208 100.988C95.2448 101.724 94.0838 103 93.2448 104.459L78.6348 96.0219C79.4848 94.5619 80.6348 93.3089 81.9218 92.5729L209.582 18.8579C212.134 17.3749 216.295 17.3749 218.87 18.8579L224.203 21.9149C226.548 23.2839 228.491 26.4219 228.79 29.2269Z" fill="white"/>
<path d="M121.926 134.357C121.9 134.327 121.886 134.262 121.886 134.161V133.203L120.387 134.07C120.305 134.117 120.264 134.073 120.264 133.937V133.593C120.264 133.515 120.269 133.452 120.278 133.404C120.288 133.357 120.305 133.295 120.33 133.219L121.924 128.867C121.953 128.788 121.978 128.732 122 128.698C122.022 128.662 122.056 128.63 122.104 128.603L122.312 128.484C122.375 128.446 122.42 128.445 122.449 128.48C122.477 128.514 122.491 128.585 122.491 128.691V132.039L122.822 131.848C122.885 131.812 122.929 131.809 122.954 131.841C122.979 131.876 122.992 131.945 122.992 132.051V132.279C122.992 132.38 122.979 132.459 122.954 132.519C122.929 132.578 122.885 132.627 122.822 132.663L122.491 132.855V133.813C122.491 133.914 122.478 133.995 122.451 134.055C122.424 134.115 122.377 134.164 122.312 134.203L122.061 134.347C121.997 134.383 121.953 134.387 121.926 134.357ZM121.985 132.329V129.942L120.897 132.958L121.985 132.329Z" fill="#FAFAFA"/>
<path d="M123.708 132.748C123.414 132.402 123.268 131.749 123.268 130.79C123.268 129.836 123.416 129.015 123.71 128.327C124.005 127.638 124.419 127.14 124.952 126.833C125.167 126.708 125.367 126.631 125.553 126.604C125.739 126.574 125.893 126.597 126.017 126.672C126.045 126.688 126.059 126.717 126.059 126.757C126.059 126.784 126.053 126.821 126.04 126.868L125.903 127.368C125.884 127.429 125.865 127.467 125.846 127.478C125.836 127.483 125.815 127.481 125.784 127.471C125.569 127.382 125.314 127.422 125.018 127.593C124.658 127.801 124.376 128.144 124.17 128.624C123.965 129.106 123.863 129.712 123.863 130.446C123.863 131.187 123.962 131.68 124.162 131.922C124.36 132.166 124.633 132.188 124.98 131.988C125.106 131.915 125.229 131.827 125.349 131.72C125.469 131.614 125.567 131.506 125.643 131.395V129.839L125.019 130.199C124.956 130.237 124.912 130.238 124.887 130.204C124.861 130.171 124.849 130.102 124.849 129.995V129.776C124.849 129.67 124.862 129.588 124.887 129.532C124.912 129.475 124.956 129.429 125.019 129.391L126.017 128.815C126.086 128.775 126.136 128.777 126.166 128.818C126.197 128.859 126.211 128.942 126.211 129.065V131.285C126.211 131.369 126.206 131.435 126.196 131.482C126.187 131.53 126.166 131.579 126.135 131.631C125.845 132.124 125.45 132.514 124.952 132.802C124.415 133.113 124.001 133.095 123.708 132.748Z" fill="#FAFAFA"/>
<path d="M210.903 76.0388C210.734 75.7908 210.524 75.7238 210.309 75.8478L204.334 79.2838C203.946 79.5068 203.643 80.3038 203.643 81.0978V84.4558C203.643 84.8988 203.735 85.2788 203.903 85.5268C203.975 85.6328 204.056 85.7068 204.144 85.7468C204.257 85.7978 204.376 85.7878 204.497 85.7188L210.472 82.2828C210.859 82.0588 211.163 81.2628 211.163 80.4668V77.1088C211.164 76.6668 211.071 76.2868 210.903 76.0388ZM204.067 85.0948C204.006 85.0058 203.971 84.8258 203.971 84.6038V81.2458C203.971 80.6608 204.212 80.0278 204.497 79.8638L210.472 76.4278C210.542 76.3878 210.607 76.3798 210.661 76.4038C210.691 76.4168 210.716 76.4398 210.738 76.4718C210.799 76.5618 210.834 76.7408 210.834 76.9618V80.3198C210.834 80.9068 210.593 81.5398 210.308 81.7038L204.333 85.1398C204.225 85.2028 204.129 85.1868 204.067 85.0948Z" fill="#FAFAFA"/>
<path d="M210.194 77.4468V80.3078C210.194 80.8388 209.91 81.3288 209.45 81.5928L204.586 84.3808C204.505 84.4268 204.404 84.3688 204.404 84.2758V81.3208C204.404 80.8938 204.591 80.4098 204.794 80.2928L209.97 77.3178C210.071 77.2608 210.194 77.3328 210.194 77.4468Z" fill="#FAFAFA"/>
<path d="M211.386 77.003C211.551 76.905 211.686 77.384 211.686 78.074V78.698C211.686 79.387 211.55 80.038 211.383 80.151L211.08 80.356L211.087 77.18C211.087 77.18 211.22 77.101 211.386 77.003Z" fill="#FAFAFA"/>
<path d="M132.287 127.105C132.287 127.845 131.898 128.67 131.417 128.947C130.936 129.224 130.547 128.85 130.547 128.11C130.547 127.37 130.936 126.545 131.417 126.268C131.897 125.99 132.287 126.365 132.287 127.105Z" fill="#FAFAFA"/>
<path d="M131.415 124.076C130.538 124.582 129.776 125.779 129.391 127.113C129.313 127.384 129.353 127.642 129.483 127.724L129.484 127.725C129.649 127.828 129.893 127.614 129.99 127.273C130.26 126.328 130.798 125.484 131.414 125.128C132.032 124.771 132.569 124.996 132.838 125.628C132.936 125.858 133.18 125.791 133.346 125.495L133.347 125.492C133.477 125.259 133.516 124.957 133.438 124.777C133.054 123.887 132.292 123.57 131.415 124.076Z" fill="#FAFAFA"/>
<path d="M131.416 121.931C130.113 122.683 128.966 124.395 128.309 126.353C128.212 126.641 128.24 126.931 128.381 127.021L128.384 127.023C128.544 127.125 128.774 126.926 128.883 126.598C129.415 124.997 130.351 123.598 131.417 122.983C132.482 122.368 133.422 122.685 133.954 123.671C134.063 123.872 134.293 123.806 134.452 123.52C134.593 123.269 134.621 122.947 134.525 122.77C133.873 121.566 132.722 121.177 131.416 121.931Z" fill="#FAFAFA"/>
<path d="M154.606 110.583C154.579 110.545 154.569 110.493 154.574 110.424C154.58 110.356 154.6 110.291 154.635 110.23L155.884 107.993C155.915 107.94 155.946 107.888 155.979 107.836C156.012 107.785 156.047 107.748 156.085 107.725L156.534 107.466C156.576 107.442 156.613 107.444 156.644 107.474C156.674 107.503 156.689 107.55 156.689 107.616V113.342C156.689 113.406 156.674 113.472 156.644 113.536C156.613 113.602 156.577 113.646 156.534 113.67L156.067 113.939C156.025 113.963 155.989 113.961 155.958 113.931C155.928 113.902 155.911 113.855 155.911 113.79V109.412L155.094 110.868C155.06 110.929 155.022 110.967 154.981 110.981C154.941 110.996 154.906 110.985 154.875 110.949L154.606 110.583Z" fill="#FAFAFA"/>
<path d="M157.517 108.901C157.49 108.865 157.48 108.811 157.486 108.742C157.491 108.675 157.511 108.61 157.546 108.548L158.796 106.312C158.826 106.258 158.858 106.206 158.891 106.154C158.923 106.104 158.959 106.067 158.997 106.045L159.445 105.785C159.487 105.761 159.524 105.763 159.555 105.793C159.585 105.823 159.601 105.87 159.601 105.934V111.66C159.601 111.726 159.586 111.79 159.555 111.855C159.524 111.92 159.487 111.965 159.445 111.989L158.979 112.258C158.936 112.283 158.9 112.28 158.869 112.25C158.839 112.221 158.823 112.174 158.823 112.109V107.731L158.006 109.187C157.971 109.248 157.934 109.286 157.893 109.3C157.852 109.315 157.817 109.304 157.787 109.268L157.517 108.901Z" fill="#FAFAFA"/>
<path d="M161.339 106.447C161.381 106.422 161.418 106.425 161.449 106.454C161.479 106.484 161.495 106.531 161.495 106.596V107.465C161.495 107.53 161.479 107.596 161.449 107.66C161.418 107.726 161.381 107.769 161.339 107.794L160.804 108.103C160.762 108.127 160.725 108.125 160.694 108.095C160.664 108.066 160.648 108.018 160.648 107.954V107.085C160.648 107.019 160.664 106.955 160.694 106.89C160.725 106.826 160.761 106.781 160.804 106.757L161.339 106.447ZM161.339 109.549C161.381 109.524 161.418 109.527 161.449 109.556C161.479 109.586 161.495 109.633 161.495 109.698V110.567C161.495 110.632 161.479 110.698 161.449 110.762C161.418 110.828 161.381 110.871 161.339 110.896L160.804 111.205C160.762 111.229 160.725 111.227 160.694 111.197C160.664 111.168 160.648 111.12 160.648 111.056V110.187C160.648 110.121 160.664 110.057 160.694 109.992C160.725 109.928 160.761 109.883 160.804 109.859L161.339 109.549Z" fill="#FAFAFA"/>
<path d="M164.415 109.121C164.373 109.145 164.336 109.143 164.305 109.113C164.275 109.084 164.259 109.036 164.259 108.972V107.899L162.474 108.929C162.432 108.953 162.395 108.951 162.365 108.922C162.334 108.893 162.318 108.845 162.318 108.78V108.151C162.318 108.068 162.331 107.989 162.355 107.912C162.381 107.835 162.41 107.752 162.444 107.662L164.206 103.259C164.283 103.067 164.362 102.947 164.441 102.902L164.879 102.649C164.921 102.625 164.958 102.627 164.989 102.657C165.019 102.686 165.034 102.733 165.034 102.799V106.344L165.53 106.058C165.572 106.034 165.609 106.036 165.639 106.066C165.67 106.095 165.685 106.144 165.685 106.208V106.838C165.685 106.902 165.67 106.968 165.639 107.033C165.609 107.098 165.572 107.142 165.53 107.166L165.034 107.452V108.525C165.034 108.589 165.019 108.655 164.989 108.719C164.958 108.785 164.921 108.829 164.879 108.853L164.415 109.121ZM164.259 106.791V104.894L163.274 107.359L164.259 106.791Z" fill="#FAFAFA"/>
<path d="M166.728 101.821C166.728 101.756 166.744 101.692 166.775 101.626C166.805 101.56 166.842 101.517 166.884 101.492L169.048 100.243C169.091 100.218 169.127 100.221 169.158 100.25C169.188 100.28 169.205 100.326 169.205 100.392V101.022C169.205 101.086 169.189 101.152 169.158 101.216C169.127 101.282 169.091 101.326 169.048 101.351L167.431 102.284L167.368 103.456C167.471 103.331 167.574 103.233 167.676 103.163C167.777 103.093 167.861 103.037 167.926 103C168.141 102.876 168.341 102.805 168.524 102.788C168.708 102.77 168.868 102.809 169.003 102.906C169.137 103.003 169.243 103.156 169.319 103.366C169.396 103.575 169.434 103.845 169.434 104.177C169.434 104.555 169.395 104.901 169.316 105.216C169.237 105.53 169.13 105.814 168.993 106.067C168.857 106.32 168.697 106.54 168.513 106.725C168.329 106.912 168.133 107.064 167.926 107.184C167.66 107.337 167.434 107.421 167.244 107.437C167.054 107.452 166.896 107.415 166.771 107.324C166.646 107.233 166.552 107.102 166.49 106.928C166.426 106.755 166.391 106.555 166.384 106.329C166.379 106.261 166.394 106.195 166.426 106.132C166.459 106.068 166.496 106.026 166.539 106L167.005 105.732C167.043 105.71 167.078 105.709 167.108 105.729C167.139 105.751 167.16 105.79 167.172 105.847C167.195 105.971 167.231 106.061 167.281 106.116C167.33 106.173 167.388 106.208 167.453 106.221C167.519 106.234 167.592 106.225 167.672 106.197C167.752 106.168 167.837 106.128 167.925 106.077C168.144 105.951 168.32 105.758 168.454 105.497C168.588 105.236 168.656 104.947 168.656 104.628C168.656 104.362 168.588 104.178 168.454 104.079C168.32 103.979 168.144 103.989 167.925 104.109C167.81 104.176 167.718 104.241 167.652 104.307C167.584 104.373 167.53 104.435 167.488 104.495C167.446 104.555 167.408 104.608 167.373 104.654C167.338 104.701 167.294 104.74 167.241 104.77L166.711 105.075C166.669 105.099 166.632 105.097 166.602 105.068C166.571 105.039 166.556 104.991 166.556 104.926L166.728 101.821Z" fill="#FAFAFA"/>
<path d="M107.598 142.712V140.865L109.198 139.941V141.788L107.598 142.712Z" fill="#FAFAFA"/>
<path d="M109.998 141.326V137.632L111.598 136.708V140.402L109.998 141.326Z" fill="#FAFAFA"/>
<path d="M112.398 139.941V134.4L113.998 133.476V139.018L112.398 139.941Z" fill="#FAFAFA"/>
<path d="M114.797 138.555V131.165L116.397 130.242V137.631L114.797 138.555Z" fill="#FAFAFA"/>
<path d="M202.538 247.214L184.57 236.84C183.124 236.005 181.342 236.005 179.896 236.84L179.286 237.192L140.119 259.805C135.715 262.348 133.002 267.047 133.002 272.132V272.133V301.942C133.002 304.13 133.742 305.69 134.95 306.465C136.247 307.298 151.542 315.967 152.75 316.742C154.047 317.575 155.882 317.501 157.917 316.326L197.083 293.711C201.013 291.442 204.198 285.925 204.198 281.387V251.575C204.194 249.631 203.631 248.185 202.538 247.214Z" fill="#FBD15E"/>
<path opacity="0.1" d="M152.789 316.765C152.778 316.76 152.762 316.749 152.751 316.743C151.541 315.965 136.248 307.3 134.95 306.468C133.74 305.69 133 304.129 133 301.944V272.131C133 269.595 133.679 267.152 134.901 265.027L152.878 275.407C151.596 277.631 150.802 280.145 150.802 282.407V312.22C150.801 314.431 151.557 316.004 152.789 316.765Z" fill="black"/>
<path d="M204.197 251.576V281.388C204.197 285.926 201.011 291.443 197.082 293.712L157.916 316.327C153.986 318.596 150.801 316.757 150.801 312.219V282.407C150.801 277.869 153.986 272.352 157.916 270.083L197.082 247.468C201.012 245.199 204.197 247.038 204.197 251.576Z" fill="#FBD15E"/>
<path opacity="0.5" d="M184.569 236.84L202.031 246.924C200.755 246.234 199.008 246.354 197.079 247.466L157.916 270.082C155.944 271.216 154.164 273.171 152.877 275.406L134.9 265.026C134.9 265.021 134.905 265.021 134.905 265.015C136.137 262.884 137.917 261.077 140.119 259.806L179.282 237.19L179.895 236.84C180.618 236.424 181.423 236.216 182.228 236.216C183.04 236.215 183.846 236.424 184.569 236.84Z" fill="white"/>
<path d="M181.314 291.556L173.683 295.962L174.865 282.158C173.952 281.675 173.371 280.488 173.371 278.783C173.371 275.743 175.219 272.212 177.499 270.896C179.778 269.58 181.626 270.977 181.626 274.017C181.626 275.722 181.044 277.581 180.131 279.118L181.314 291.556Z" fill="#455A64"/>
<path d="M181.315 291.556L174.403 287.566L173.684 295.962L181.315 291.556Z" fill="#37474F"/>
<path d="M177.499 270.896C176.007 271.757 174.704 273.568 173.979 275.567L180.132 279.119V279.117C181.045 277.581 181.627 275.721 181.627 274.016C181.626 270.977 179.778 269.58 177.499 270.896Z" fill="#37474F"/>
<path d="M185.292 246.853C185.292 246.851 185.293 246.849 185.293 246.847H185.292V216.613C185.292 210.556 183.003 205.761 179.012 203.457C175.203 201.258 170.492 201.556 165.746 204.296C157.029 209.329 150.2 221.609 150.2 232.253V262.594H150.199C150.199 263.185 150.593 263.775 151.374 264.226C152.935 265.128 155.467 265.128 157.029 264.226C157.81 263.775 158.204 263.185 158.204 262.594V232.253C158.204 224.468 163.491 214.839 169.748 211.226C171.881 209.994 173.799 209.688 175.011 210.387C176.438 211.211 177.29 213.538 177.29 216.613V246.847C177.29 246.848 177.29 246.849 177.29 246.85V246.861H177.292C177.298 247.447 177.69 248.032 178.464 248.479C180.025 249.381 182.557 249.381 184.118 248.479C184.893 248.032 185.285 247.447 185.291 246.861L185.292 246.853Z" fill="#37474F"/>
<path d="M137.811 148.521L190.299 118.217C190.821 117.916 191.291 117.938 191.622 118.219C191.925 118.476 193.817 119.431 194.143 119.663C194.484 119.905 194.696 120.399 194.696 121.081V168.314C194.696 169.648 193.885 171.198 192.884 171.775L183.668 177.096L136.574 149.895C136.897 149.302 137.331 148.798 137.811 148.521Z" fill="#EA9865"/>
<path opacity="0.5" d="M137.811 148.521L190.299 118.217C190.821 117.916 191.291 117.938 191.622 118.219C191.925 118.476 193.817 119.431 194.143 119.663C194.484 119.905 194.696 120.399 194.696 121.081V168.314C194.696 169.648 193.885 171.198 192.884 171.775L183.668 177.096L136.574 149.895C136.897 149.302 137.331 148.798 137.811 148.521Z" fill="white"/>
<path d="M139.168 202.148C138.809 201.914 136.898 200.865 136.574 200.648C136.221 200.411 136 199.911 136 199.216V151.983C136 151.289 136.222 150.539 136.574 149.896L183.668 177.098L140.396 202.08C139.923 202.353 139.491 202.36 139.168 202.148Z" fill="#EA9865"/>
<path opacity="0.2" d="M139.168 202.148C138.809 201.914 136.898 200.865 136.574 200.648C136.221 200.411 136 199.911 136 199.216V151.983C136 151.289 136.222 150.539 136.574 149.896L183.668 177.098L140.396 202.08C139.923 202.353 139.491 202.36 139.168 202.148Z" fill="black"/>
<path d="M140.398 202.08L192.886 171.776C193.887 171.199 194.698 169.649 194.698 168.315V121.082C194.698 119.748 193.887 119.135 192.886 119.712L140.398 150.016C139.397 150.594 138.586 152.144 138.586 153.478V200.711C138.586 202.044 139.397 202.657 140.398 202.08Z" fill="#EA9865"/>
<path opacity="0.2" d="M138.586 200.711V199.781L160.284 163.82L138.863 151.948C138.91 151.815 138.964 151.686 139.021 151.561L165.711 162.684C166.277 162.92 167.004 162.5 167.57 161.611L194.224 119.729C194.281 119.788 194.339 119.83 194.386 119.908L172.998 156.479L194.696 167.385V168.315C194.696 169.044 194.482 169.813 194.151 170.447L171.895 158.365L168.744 163.75C167.493 165.888 165.79 166.871 164.539 166.178L161.388 164.432L139.169 202.15C138.838 201.898 138.586 201.44 138.586 200.711Z" fill="black"/>
<path d="M364.629 298.331C349.698 289.71 325.489 289.71 310.557 298.331C304.3 301.943 300.38 304.371 299.373 309.074V313.946C299.38 317.576 300.928 321.206 304.015 324.481L237 358.307V363.173L244.511 367.507H265.464L273.704 362.75V358.15L280.27 354.487L289.407 353.684L293.044 351.584L293.412 343.423L300.164 339.525L310.057 341.762L322.934 334.328C336.798 337.647 353.355 336.06 364.628 329.551C372.114 325.229 375.847 319.561 375.826 313.896V309.076C375.15 304.007 371.342 302.207 364.629 298.331ZM355.302 312.287C351.072 314.729 344.214 314.729 339.984 312.287C335.754 309.845 335.754 305.885 339.984 303.443C344.214 301.001 351.072 301.001 355.302 303.443C359.532 305.886 359.532 309.845 355.302 312.287Z" fill="#EA9865"/>
<path opacity="0.1" d="M364.629 298.331C349.698 289.71 325.489 289.71 310.557 298.331C304.3 301.943 300.38 304.371 299.373 309.074V313.946C299.38 317.576 300.928 321.206 304.015 324.481L237 358.307V363.173L244.511 367.507H265.464L273.704 362.75V358.15L280.27 354.487L289.407 353.684L293.044 351.584L293.412 343.423L300.164 339.525L310.057 341.762L322.934 334.328C336.798 337.647 353.355 336.06 364.628 329.551C372.114 325.229 375.847 319.561 375.826 313.896V309.076C375.15 304.007 371.342 302.207 364.629 298.331ZM355.302 312.287C351.072 314.729 344.214 314.729 339.984 312.287C335.754 309.845 335.754 305.885 339.984 303.443C344.214 301.001 351.072 301.001 355.302 303.443C359.532 305.886 359.532 309.845 355.302 312.287Z" fill="black"/>
<path d="M364.629 293.466C349.698 284.845 325.489 284.845 310.557 293.466C298.288 300.549 296.122 311.243 304.015 319.616L237 358.307L244.511 362.641H265.464L273.704 357.884L273.147 353.595L280.27 349.621L289.407 348.818L293.044 346.718L293.412 338.557L300.164 334.659L310.057 336.895L322.934 329.461C336.798 332.78 353.355 331.193 364.628 324.684C379.56 316.063 379.56 302.086 364.629 293.466ZM355.302 307.421C351.072 309.863 344.214 309.863 339.984 307.421C335.754 304.979 335.754 301.019 339.984 298.577C344.214 296.135 351.072 296.135 355.302 298.577C359.532 301.02 359.532 304.979 355.302 307.421Z" fill="#EA9865"/>
<path opacity="0.3" d="M337.593 326.066C328.258 326.066 319.56 324.011 313.099 320.282C307.598 317.104 304.443 313.02 304.443 309.075C304.443 305.13 307.598 301.045 313.099 297.868C319.56 294.139 328.258 292.084 337.593 292.084C346.928 292.084 355.626 294.139 362.087 297.868C367.589 301.045 370.744 305.13 370.744 309.075C370.744 313.02 367.589 317.105 362.087 320.282C355.626 324.011 346.927 326.066 337.593 326.066Z" stroke="black" stroke-width="1.3741" stroke-miterlimit="10"/>
<path opacity="0.1" d="M351.353 329.664V334.527C342.219 336.561 332 336.493 322.933 334.324V329.46C332 331.63 342.219 331.698 351.353 329.664Z" fill="black"/>
<path opacity="0.1" d="M310.057 336.895V341.761L300.164 339.524V334.658L310.057 336.895Z" fill="black"/>
<path opacity="0.1" d="M293.412 338.556V343.422L293.043 351.584V346.718L293.412 338.556Z" fill="black"/>
<path opacity="0.1" d="M289.407 348.818V353.684L280.27 354.486V349.621L289.407 348.818Z" fill="black"/>
<path opacity="0.1" d="M265.463 362.641H244.51V367.507H265.463V362.641Z" fill="black"/>
<path opacity="0.15" d="M237 358.307V363.173L244.51 367.507V362.641L241.219 360.741V362.841L239.402 361.792V359.67L237 358.307Z" fill="black"/>
<path d="M239.402 359.67L241.219 360.741V362.841L239.402 361.792V359.67Z" fill="#EA9865"/>
<path opacity="0.15" d="M239.402 359.67V361.792L308.128 322.11L306.31 321.039L239.402 359.67Z" fill="black"/>
<path opacity="0.15" d="M306.31 321.039V323.161L308.128 322.11L306.31 321.039Z" fill="black"/>
</svg>
